<svg width="105" height="31" viewBox="0 0 105 31" fill="none" xmlns="http://www.w3.org/2000/svg">
<path d="M17.25 10.3594H11.1406V8.48438C11.1406 7.60938 11.0625 7.05208 10.9062 6.8125C10.75 6.57292 10.4896 6.45312 10.125 6.45312C9.72917 6.45312 9.42708 6.61458 9.21875 6.9375C9.02083 7.26042 8.92188 7.75 8.92188 8.40625C8.92188 9.25 9.03646 9.88542 9.26562 10.3125C9.48438 10.7396 10.1042 11.2552 11.125 11.8594C14.0521 13.599 15.8958 15.026 16.6562 16.1406C17.4167 17.2552 17.7969 19.0521 17.7969 21.5312C17.7969 23.3333 17.5833 24.6615 17.1562 25.5156C16.7396 26.3698 15.9271 27.0885 14.7188 27.6719C13.5104 28.2448 12.1042 28.5312 10.5 28.5312C8.73958 28.5312 7.23438 28.1979 5.98438 27.5312C4.74479 26.8646 3.93229 26.0156 3.54688 24.9844C3.16146 23.9531 2.96875 22.4896 2.96875 20.5938V18.9375H9.07812V22.0156C9.07812 22.9635 9.16146 23.5729 9.32812 23.8438C9.50521 24.1146 9.8125 24.25 10.25 24.25C10.6875 24.25 11.0104 24.0781 11.2188 23.7344C11.4375 23.3906 11.5469 22.8802 11.5469 22.2031C11.5469 20.7135 11.3438 19.7396 10.9375 19.2812C10.5208 18.8229 9.49479 18.0573 7.85938 16.9844C6.22396 15.901 5.14062 15.1146 4.60938 14.625C4.07812 14.1354 3.63542 13.4583 3.28125 12.5938C2.9375 11.7292 2.76562 10.625 2.76562 9.28125C2.76562 7.34375 3.01042 5.92708 3.5 5.03125C4 4.13542 4.80208 3.4375 5.90625 2.9375C7.01042 2.42708 8.34375 2.17188 9.90625 2.17188C11.6146 2.17188 13.0677 2.44792 14.2656 3C15.474 3.55208 16.2708 4.25 16.6562 5.09375C17.0521 5.92708 17.25 7.34896 17.25 9.35938V10.3594ZM20.835 2.70312H31.8037V7.76562H27.4131V12.5625H31.5225V17.375H27.4131V22.9375H32.2412V28H20.835V2.70312ZM50.4669 13.7344H43.8888V9.32812C43.8888 8.04688 43.8158 7.25 43.67 6.9375C43.5346 6.61458 43.2273 6.45312 42.7481 6.45312C42.2065 6.45312 41.8627 6.64583 41.7169 7.03125C41.571 7.41667 41.4981 8.25 41.4981 9.53125V21.2812C41.4981 22.5104 41.571 23.3125 41.7169 23.6875C41.8627 24.0625 42.1908 24.25 42.7013 24.25C43.1908 24.25 43.5085 24.0625 43.6544 23.6875C43.8106 23.3125 43.8888 22.4323 43.8888 21.0469V17.875H50.4669V18.8594C50.4669 21.474 50.2794 23.3281 49.9044 24.4219C49.5398 25.5156 48.7221 26.474 47.4513 27.2969C46.1908 28.1198 44.6335 28.5312 42.7794 28.5312C40.8523 28.5312 39.2638 28.1823 38.0138 27.4844C36.7638 26.7865 35.9356 25.8229 35.5294 24.5938C35.1231 23.3542 34.92 21.4948 34.92 19.0156V11.625C34.92 9.80208 34.9825 8.4375 35.1075 7.53125C35.2325 6.61458 35.6023 5.73438 36.2169 4.89062C36.8419 4.04688 37.7013 3.38542 38.795 2.90625C39.8992 2.41667 41.1648 2.17188 42.5919 2.17188C44.5294 2.17188 46.1283 2.54688 47.3888 3.29688C48.6492 4.04688 49.4773 4.98438 49.8731 6.10938C50.269 7.22396 50.4669 8.96354 50.4669 11.3281V13.7344ZM67.0363 2.70312V7.76562H63.13V28H56.5519V7.76562H52.6613V2.70312H67.0363ZM84.5275 17.5156C84.5275 20.0573 84.465 21.8594 84.34 22.9219C84.2254 23.974 83.8504 24.9375 83.215 25.8125C82.59 26.6875 81.741 27.3594 80.6681 27.8281C79.5952 28.2969 78.3452 28.5312 76.9181 28.5312C75.564 28.5312 74.3452 28.3125 73.2619 27.875C72.189 27.4271 71.3244 26.7604 70.6681 25.875C70.0119 24.9896 69.6212 24.026 69.4962 22.9844C69.3712 21.9427 69.3087 20.1198 69.3087 17.5156V13.1875C69.3087 10.6458 69.366 8.84896 69.4806 7.79688C69.6056 6.73438 69.9806 5.76562 70.6056 4.89062C71.241 4.01562 72.0952 3.34375 73.1681 2.875C74.241 2.40625 75.491 2.17188 76.9181 2.17188C78.2723 2.17188 79.4858 2.39583 80.5587 2.84375C81.6421 3.28125 82.5119 3.94271 83.1681 4.82812C83.8244 5.71354 84.215 6.67708 84.34 7.71875C84.465 8.76042 84.5275 10.5833 84.5275 13.1875V17.5156ZM77.9494 9.20312C77.9494 8.02604 77.8817 7.27604 77.7462 6.95312C77.6212 6.61979 77.3556 6.45312 76.9494 6.45312C76.6056 6.45312 76.34 6.58854 76.1525 6.85938C75.9754 7.11979 75.8869 7.90104 75.8869 9.20312V21.0156C75.8869 22.4844 75.9442 23.3906 76.0587 23.7344C76.1837 24.0781 76.465 24.25 76.9025 24.25C77.3504 24.25 77.6369 24.0521 77.7619 23.6562C77.8869 23.2604 77.9494 22.3177 77.9494 20.8281V9.20312ZM87.9563 2.70312H92.6125C95.7167 2.70312 97.8156 2.82292 98.9094 3.0625C100.014 3.30208 100.909 3.91667 101.597 4.90625C102.295 5.88542 102.644 7.45312 102.644 9.60938C102.644 11.5781 102.399 12.901 101.909 13.5781C101.42 14.2552 100.456 14.6615 99.0188 14.7969C100.321 15.1198 101.196 15.5521 101.644 16.0938C102.092 16.6354 102.368 17.1354 102.472 17.5938C102.586 18.0417 102.644 19.2865 102.644 21.3281V28H96.5344V19.5938C96.5344 18.2396 96.425 17.401 96.2063 17.0781C95.9979 16.7552 95.4406 16.5938 94.5344 16.5938V28H87.9563V2.70312ZM94.5344 7.03125V12.6562C95.274 12.6562 95.7896 12.5573 96.0813 12.3594C96.3833 12.151 96.5344 11.4896 96.5344 10.375V8.98438C96.5344 8.18229 96.3885 7.65625 96.0969 7.40625C95.8156 7.15625 95.2948 7.03125 94.5344 7.03125Z" fill="black"/>
<path d="M17.25 10.3594V12.3594H19.25V10.3594H17.25ZM11.1406 10.3594H9.14062V12.3594H11.1406V10.3594ZM9.21875 6.9375L7.53816 5.85325L7.52563 5.87267L7.51355 5.89238L9.21875 6.9375ZM9.26562 10.3125L11.0457 9.40075L11.037 9.38372L11.0279 9.36686L9.26562 10.3125ZM11.125 11.8594L12.1468 10.1401L12.1436 10.1382L11.125 11.8594ZM17.1562 25.5156L15.3674 24.6212L15.363 24.63L15.3587 24.6388L17.1562 25.5156ZM14.7188 27.6719L15.5756 29.4791L15.5882 29.473L14.7188 27.6719ZM5.98438 27.5312L5.03705 29.2927L5.0432 29.296L5.98438 27.5312ZM2.96875 18.9375V16.9375H0.96875V18.9375H2.96875ZM9.07812 18.9375H11.0781V16.9375H9.07812V18.9375ZM9.32812 23.8438L7.62481 24.8919L7.63918 24.9153L7.65419 24.9382L9.32812 23.8438ZM11.2188 23.7344L9.53143 22.6606L9.51969 22.6791L9.50835 22.6978L11.2188 23.7344ZM10.9375 19.2812L12.4342 17.9546L12.4258 17.9452L12.4174 17.9359L10.9375 19.2812ZM7.85938 16.9844L6.75487 18.6518L6.76229 18.6566L7.85938 16.9844ZM3.28125 12.5938L1.42276 13.3327L1.42658 13.3423L1.43051 13.3519L3.28125 12.5938ZM3.5 5.03125L1.7536 4.05652L1.74926 4.0643L1.74499 4.07212L3.5 5.03125ZM5.90625 2.9375L6.73127 4.75941L6.73837 4.75619L6.74545 4.75292L5.90625 2.9375ZM14.2656 3L13.4285 4.81639L13.4345 4.81912L14.2656 3ZM16.6562 5.09375L14.8371 5.92474L14.8433 5.93835L14.8497 5.95186L16.6562 5.09375ZM17.25 8.35938H11.1406V12.3594H17.25V8.35938ZM13.1406 10.3594V8.48438H9.14062V10.3594H13.1406ZM13.1406 8.48438C13.1406 7.99887 13.1196 7.53888 13.0627 7.1325C13.0148 6.79112 12.9105 6.22453 12.5815 5.71996L9.23103 7.90504C9.12742 7.74616 9.09327 7.62699 9.09006 7.61609C9.084 7.5955 9.09103 7.61388 9.1014 7.68781C9.12255 7.83873 9.14062 8.09488 9.14062 8.48438H13.1406ZM12.5815 5.71996C11.9544 4.75848 10.9556 4.45312 10.125 4.45312V8.45312C10.0945 8.45312 9.95095 8.44874 9.75794 8.35995C9.54644 8.26266 9.35931 8.10173 9.23103 7.90504L12.5815 5.71996ZM10.125 4.45312C9.07446 4.45312 8.12797 4.93903 7.53816 5.85325L10.8993 8.02175C10.8422 8.11039 10.7281 8.23986 10.5443 8.33808C10.363 8.43497 10.2045 8.45312 10.125 8.45312V4.45312ZM7.51355 5.89238C7.02829 6.68412 6.92188 7.61803 6.92188 8.40625H10.9219C10.9219 8.17236 10.9401 8.02425 10.9564 7.94312C10.9735 7.85887 10.9794 7.89208 10.924 7.98262L7.51355 5.89238ZM6.92188 8.40625C6.92188 9.36847 7.04189 10.3982 7.5033 11.2581L11.0279 9.36686C11.0393 9.38802 11.0077 9.33609 10.9761 9.16069C10.9452 8.98937 10.9219 8.74307 10.9219 8.40625H6.92188ZM7.48554 11.2243C7.77414 11.7877 8.22026 12.2283 8.61543 12.557C9.03548 12.9065 9.54281 13.247 10.1064 13.5805L12.1436 10.1382C11.6864 9.86758 11.3734 9.6482 11.1736 9.48203C10.949 9.29517 10.9759 9.26437 11.0457 9.40075L7.48554 11.2243ZM10.1032 13.5787C11.5254 14.4239 12.6436 15.1694 13.479 15.816C14.3372 16.4803 14.7974 16.9648 15.0041 17.2678L18.3084 15.0135C17.7546 14.2018 16.9128 13.4156 15.9273 12.6528C14.9189 11.8723 13.6517 11.0345 12.1468 10.1401L10.1032 13.5787ZM15.0041 17.2678C15.4162 17.8718 15.7969 19.1638 15.7969 21.5312H19.7969C19.7969 18.9404 19.4171 16.6386 18.3084 15.0135L15.0041 17.2678ZM15.7969 21.5312C15.7969 23.2515 15.5806 24.1948 15.3674 24.6212L18.9451 26.4101C19.5861 25.1281 19.7969 23.4152 19.7969 21.5312H15.7969ZM15.3587 24.6388C15.2057 24.9524 14.8162 25.404 13.8493 25.8708L15.5882 29.473C17.038 28.7731 18.2734 27.7872 18.9538 26.3925L15.3587 24.6388ZM13.8619 25.8647C12.9695 26.2878 11.8661 26.5312 10.5 26.5312V30.5312C12.3422 30.5312 14.0513 30.2017 15.5756 29.479L13.8619 25.8647ZM10.5 26.5312C8.98952 26.5312 7.82386 26.2456 6.92555 25.7665L5.0432 29.296C6.64489 30.1502 8.48965 30.5312 10.5 30.5312V26.5312ZM6.93169 25.7698C5.99699 25.2671 5.5929 24.746 5.42031 24.2842L1.67344 25.6845C2.27168 27.2852 3.49259 28.462 5.03706 29.2927L6.93169 25.7698ZM5.42031 24.2842C5.15801 23.5824 4.96875 22.3975 4.96875 20.5938H0.96875C0.96875 22.5817 1.16491 24.3239 1.67344 25.6845L5.42031 24.2842ZM4.96875 20.5938V18.9375H0.96875V20.5938H4.96875ZM2.96875 20.9375H9.07812V16.9375H2.96875V20.9375ZM7.07812 18.9375V22.0156H11.0781V18.9375H7.07812ZM7.07812 22.0156C7.07812 22.5374 7.10043 23.0258 7.15907 23.4546C7.20975 23.8252 7.31521 24.3888 7.62481 24.8919L11.0314 22.7956C11.0776 22.8706 11.1052 22.9313 11.1199 22.9672C11.1349 23.0038 11.1415 23.0267 11.1427 23.0307C11.1441 23.0357 11.1343 23.0014 11.1222 22.9126C11.0975 22.732 11.0781 22.4418 11.0781 22.0156H7.07812ZM7.65419 24.9382C8.32457 25.9635 9.40041 26.25 10.25 26.25V22.25C10.2286 22.25 10.3329 22.2456 10.4979 22.3183C10.6844 22.4004 10.8705 22.548 11.0021 22.7493L7.65419 24.9382ZM10.25 26.25C11.3123 26.25 12.3213 25.7739 12.9291 24.771L9.50835 22.6978C9.5718 22.5931 9.69338 22.4553 9.88061 22.3556C10.0601 22.2601 10.205 22.25 10.25 22.25V26.25ZM12.9061 24.8081C13.4233 23.9953 13.5469 23.0351 13.5469 22.2031H9.54688C9.54688 22.4399 9.52721 22.5908 9.50924 22.6747C9.49101 22.7597 9.48295 22.7368 9.53143 22.6606L12.9061 24.8081ZM13.5469 22.2031C13.5469 21.3817 13.4921 20.617 13.3524 19.9471C13.2195 19.3099 12.9702 18.5594 12.4342 17.9546L9.44081 20.6079C9.31105 20.4615 9.36644 20.4271 9.43666 20.7638C9.50009 21.0679 9.54688 21.535 9.54688 22.2031H13.5469ZM12.4174 17.9359C11.7994 17.2561 10.5468 16.3555 8.95646 15.3121L6.76229 18.6566C8.44277 19.7591 9.24227 20.3897 9.45762 20.6266L12.4174 17.9359ZM8.96387 15.317C7.31593 14.2254 6.36191 13.5203 5.96474 13.1543L3.25401 16.0957C3.91934 16.7089 5.13199 17.5767 6.75488 18.6517L8.96387 15.317ZM5.96474 13.1543C5.7022 12.9123 5.40648 12.5057 5.13199 11.8356L1.43051 13.3519C1.86436 14.411 2.45405 15.3585 3.25401 16.0957L5.96474 13.1543ZM5.13974 11.8548C4.92121 11.3052 4.76562 10.475 4.76562 9.28125H0.765625C0.765625 10.775 0.953794 12.1532 1.42276 13.3327L5.13974 11.8548ZM4.76562 9.28125C4.76562 7.42822 5.0142 6.43102 5.25501 5.99038L1.74499 4.07212C1.00663 5.42315 0.765625 7.25928 0.765625 9.28125H4.76562ZM5.2464 6.00598C5.50189 5.54822 5.94397 5.11592 6.73127 4.75941L5.08123 1.11559C3.6602 1.75908 2.49811 2.72261 1.7536 4.05652L5.2464 6.00598ZM6.74545 4.75292C7.52293 4.39352 8.55414 4.17188 9.90625 4.17188V0.171875C8.13336 0.171875 6.49791 0.460648 5.06705 1.12208L6.74545 4.75292ZM9.90625 4.17188C11.4075 4.17188 12.5585 4.41542 13.4285 4.81638L15.1027 1.18362C13.5769 0.480412 11.8217 0.171875 9.90625 0.171875V4.17188ZM13.4345 4.81912C14.3917 5.25645 14.7227 5.67438 14.8371 5.92474L18.4754 4.26276C17.819 2.82562 16.5563 1.84771 15.0968 1.18088L13.4345 4.81912ZM14.8497 5.95186C15.0385 6.34941 15.25 7.37587 15.25 9.35938H19.25C19.25 7.32204 19.0656 5.50476 18.4628 4.23564L14.8497 5.95186ZM15.25 9.35938V10.3594H19.25V9.35938H15.25ZM20.835 2.70312V0.703125H18.835V2.70312H20.835ZM31.8037 2.70312H33.8037V0.703125H31.8037V2.70312ZM31.8037 7.76562V9.76562H33.8037V7.76562H31.8037ZM27.4131 7.76562V5.76562H25.4131V7.76562H27.4131ZM27.4131 12.5625H25.4131V14.5625H27.4131V12.5625ZM31.5225 12.5625H33.5225V10.5625H31.5225V12.5625ZM31.5225 17.375V19.375H33.5225V17.375H31.5225ZM27.4131 17.375V15.375H25.4131V17.375H27.4131ZM27.4131 22.9375H25.4131V24.9375H27.4131V22.9375ZM32.2412 22.9375H34.2412V20.9375H32.2412V22.9375ZM32.2412 28V30H34.2412V28H32.2412ZM20.835 28H18.835V30H20.835V28ZM20.835 4.70312H31.8037V0.703125H20.835V4.70312ZM29.8037 2.70312V7.76562H33.8037V2.70312H29.8037ZM31.8037 5.76562H27.4131V9.76562H31.8037V5.76562ZM25.4131 7.76562V12.5625H29.4131V7.76562H25.4131ZM27.4131 14.5625H31.5225V10.5625H27.4131V14.5625ZM29.5225 12.5625V17.375H33.5225V12.5625H29.5225ZM31.5225 15.375H27.4131V19.375H31.5225V15.375ZM25.4131 17.375V22.9375H29.4131V17.375H25.4131ZM27.4131 24.9375H32.2412V20.9375H27.4131V24.9375ZM30.2412 22.9375V28H34.2412V22.9375H30.2412ZM32.2412 26H20.835V30H32.2412V26ZM22.835 28V2.70312H18.835V28H22.835ZM50.4669 13.7344V15.7344H52.4669V13.7344H50.4669ZM43.8887 13.7344H41.8887V15.7344H43.8887V13.7344ZM43.67 6.9375L41.8256 7.71095L41.8409 7.74743L41.8576 7.78327L43.67 6.9375ZM41.7169 7.03125L39.8463 6.32347L41.7169 7.03125ZM41.7169 23.6875L39.8529 24.4124L41.7169 23.6875ZM43.6544 23.6875L41.8082 22.9183L41.799 22.9403L41.7904 22.9626L43.6544 23.6875ZM43.8887 17.875V15.875H41.8887V17.875H43.8887ZM50.4669 17.875H52.4669V15.875H50.4669V17.875ZM49.9044 24.4219L48.0125 23.7732L48.0097 23.7813L48.007 23.7894L49.9044 24.4219ZM47.4512 27.2969L46.3642 25.6181L46.3579 25.6222L47.4512 27.2969ZM35.5294 24.5938L33.6288 25.2166L33.6304 25.2214L35.5294 24.5938ZM35.1075 7.53125L37.0887 7.80453L37.0892 7.80148L35.1075 7.53125ZM36.2169 4.89062L34.6098 3.70017L34.605 3.70661L34.6003 3.7131L36.2169 4.89062ZM38.795 2.90625L39.5976 4.73818L39.6057 4.73458L38.795 2.90625ZM49.8731 6.10938L47.9865 6.77319L47.9884 6.7787L49.8731 6.10938ZM50.4669 11.7344H43.8887V15.7344H50.4669V11.7344ZM45.8887 13.7344V9.32812H41.8887V13.7344H45.8887ZM45.8887 9.32812C45.8887 8.65808 45.87 8.07112 45.8257 7.58729C45.7887 7.18256 45.7164 6.59318 45.4824 6.09173L41.8576 7.78327C41.7964 7.65207 41.7902 7.5824 41.8035 7.64961C41.8133 7.6993 41.8281 7.79554 41.8424 7.95178C41.871 8.26482 41.8887 8.71692 41.8887 9.32812H45.8887ZM45.5144 6.16405C45.2687 5.57826 44.837 5.1026 44.2682 4.80373C43.7395 4.52595 43.195 4.45312 42.7481 4.45312V8.45312C42.7805 8.45312 42.6291 8.46103 42.4077 8.34471C42.1462 8.20729 41.9358 7.97383 41.8256 7.71095L45.5144 6.16405ZM42.7481 4.45312C42.2572 4.45312 41.6678 4.53816 41.1061 4.8531C40.5041 5.19053 40.0774 5.7128 39.8463 6.32347L43.5874 7.73903C43.5022 7.96428 43.3202 8.19749 43.0621 8.34222C42.844 8.46445 42.6974 8.45312 42.7481 8.45312V4.45312ZM39.8463 6.32347C39.6715 6.78557 39.6 7.31886 39.5604 7.77098C39.517 8.26744 39.4981 8.85948 39.4981 9.53125H43.4981C43.4981 8.92177 43.5157 8.45652 43.5452 8.11965C43.5786 7.73843 43.6165 7.66234 43.5874 7.73903L39.8463 6.32347ZM39.4981 9.53125V21.2812H43.4981V9.53125H39.4981ZM39.4981 21.2812C39.4981 21.9284 39.517 22.502 39.561 22.9858C39.6011 23.426 39.6739 23.9522 39.8529 24.4124L43.5809 22.9626C43.614 23.0478 43.5775 22.9854 43.5446 22.6236C43.5157 22.3053 43.4981 21.8632 43.4981 21.2812H39.4981ZM39.8529 24.4124C40.0803 24.9973 40.4913 25.5094 41.0801 25.8459C41.6341 26.1624 42.2153 26.25 42.7012 26.25V22.25C42.6768 22.25 42.8387 22.2438 43.0646 22.3729C43.3253 22.5218 43.4993 22.7527 43.5809 22.9626L39.8529 24.4124ZM42.7012 26.25C43.1901 26.25 43.7715 26.1574 44.3232 25.8318C44.9042 25.4889 45.2985 24.9777 45.5184 24.4124L41.7904 22.9626C41.8644 22.7723 42.027 22.5423 42.2902 22.387C42.4063 22.3184 42.5104 22.2837 42.5837 22.2667C42.6551 22.2501 42.698 22.25 42.7012 22.25V26.25ZM45.5005 24.4567C45.7056 23.9646 45.7813 23.3852 45.8223 22.9229C45.8687 22.4009 45.8887 21.7696 45.8887 21.0469H41.8887C41.8887 21.7096 41.8698 22.2111 41.838 22.5693C41.8221 22.7478 41.8049 22.8692 41.7909 22.9444C41.7745 23.0321 41.7719 23.0056 41.8082 22.9183L45.5005 24.4567ZM45.8887 21.0469V17.875H41.8887V21.0469H45.8887ZM43.8887 19.875H50.4669V15.875H43.8887V19.875ZM48.4669 17.875V18.8594H52.4669V17.875H48.4669ZM48.4669 18.8594C48.4669 21.4607 48.2704 23.021 48.0125 23.7732L51.7963 25.0705C52.2883 23.6353 52.4669 21.4872 52.4669 18.8594H48.4669ZM48.007 23.7894C47.8255 24.334 47.3741 24.9641 46.3642 25.6181L48.5383 28.9756C50.0701 27.9838 51.2541 26.6972 51.8017 25.0543L48.007 23.7894ZM46.3579 25.6222C45.4908 26.1883 44.3356 26.5312 42.7794 26.5312V30.5312C44.9315 30.5312 46.8908 30.0513 48.5446 28.9715L46.3579 25.6222ZM42.7794 26.5312C41.0801 26.5312 39.8552 26.2219 38.9887 25.7381L37.0388 29.2306C38.6723 30.1427 40.6245 30.5312 42.7794 30.5312V26.5312ZM38.9887 25.7381C38.1258 25.2563 37.6603 24.6681 37.4283 23.9661L33.6304 25.2214C34.2109 26.9778 35.4017 28.3166 37.0388 29.2306L38.9887 25.7381ZM37.4299 23.9709C37.1247 23.0397 36.92 21.4377 36.92 19.0156H32.92C32.92 21.5519 33.1215 23.6686 33.6288 25.2166L37.4299 23.9709ZM36.92 19.0156V11.625H32.92V19.0156H36.92ZM36.92 11.625C36.92 9.82257 36.9832 8.56994 37.0887 7.80452L33.1263 7.25798C32.9818 8.30506 32.92 9.7816 32.92 11.625H36.92ZM37.0892 7.80148C37.164 7.25296 37.3884 6.67915 37.8335 6.06815L34.6003 3.7131C33.8161 4.7896 33.301 5.9762 33.1258 7.26102L37.0892 7.80148ZM37.824 6.08108C38.2142 5.55434 38.7788 5.09687 39.5976 4.73816L37.9924 1.07434C36.6237 1.67396 35.4696 2.53941 34.6098 3.70017L37.824 6.08108ZM39.6057 4.73458C40.4125 4.37684 41.394 4.17188 42.5919 4.17188V0.171875C40.9356 0.171875 39.3858 0.456489 37.9843 1.07792L39.6057 4.73458ZM42.5919 4.17188C44.2818 4.17188 45.4991 4.49974 46.366 5.01561L48.4115 1.57814C46.7576 0.594009 44.777 0.171875 42.5919 0.171875V4.17188ZM46.366 5.01561C47.3195 5.58298 47.7795 6.18494 47.9865 6.77319L51.7598 5.44556C51.1751 3.78381 49.9788 2.51077 48.4115 1.57814L46.366 5.01561ZM47.9884 6.7787C48.2647 7.55657 48.4669 9.01071 48.4669 11.3281H52.4669C52.4669 8.91637 52.2732 6.89134 51.7578 5.44005L47.9884 6.7787ZM48.4669 11.3281V13.7344H52.4669V11.3281H48.4669ZM67.0363 2.70312H69.0363V0.703125H67.0363V2.70312ZM67.0363 7.76562V9.76562H69.0363V7.76562H67.0363ZM63.13 7.76562V5.76562H61.13V7.76562H63.13ZM63.13 28V30H65.13V28H63.13ZM56.5519 28H54.5519V30H56.5519V28ZM56.5519 7.76562H58.5519V5.76562H56.5519V7.76562ZM52.6613 7.76562H50.6613V9.76562H52.6613V7.76562ZM52.6613 2.70312V0.703125H50.6613V2.70312H52.6613ZM65.0363 2.70312V7.76562H69.0363V2.70312H65.0363ZM67.0363 5.76562H63.13V9.76562H67.0363V5.76562ZM61.13 7.76562V28H65.13V7.76562H61.13ZM63.13 26H56.5519V30H63.13V26ZM58.5519 28V7.76562H54.5519V28H58.5519ZM56.5519 5.76562H52.6613V9.76562H56.5519V5.76562ZM54.6613 7.76562V2.70312H50.6613V7.76562H54.6613ZM52.6613 4.70312H67.0363V0.703125H52.6613V4.70312ZM84.34 22.9219L82.3537 22.6882L82.3527 22.6968L82.3518 22.7053L84.34 22.9219ZM83.215 25.8125L81.5967 24.6373L81.5921 24.6436L81.5875 24.65L83.215 25.8125ZM73.2619 27.875L72.4914 29.7206L72.5021 29.7251L72.5129 29.7295L73.2619 27.875ZM69.4806 7.79688L67.4943 7.56319L67.4933 7.57176L67.4924 7.58033L69.4806 7.79688ZM70.6056 4.89062L68.9873 3.71543L68.9827 3.72177L68.9782 3.72815L70.6056 4.89062ZM80.5587 2.84375L79.7882 4.68937L79.799 4.69387L79.8098 4.69823L80.5587 2.84375ZM77.7462 6.95312L75.8736 7.65537L75.887 7.69125L75.9019 7.72658L77.7462 6.95312ZM76.1525 6.85938L74.5081 5.72095L74.5033 5.72784L74.4986 5.73475L76.1525 6.85938ZM76.0587 23.7344L74.1614 24.3668L74.1699 24.3925L74.1792 24.4179L76.0587 23.7344ZM77.7619 23.6562L75.8547 23.054L77.7619 23.6562ZM82.5275 17.5156C82.5275 20.056 82.4636 21.7537 82.3537 22.6882L86.3263 23.1556C86.4664 21.965 86.5275 20.0586 86.5275 17.5156H82.5275ZM82.3518 22.7053C82.2757 23.4033 82.0321 24.0377 81.5967 24.6373L84.8333 26.9877C85.6687 25.8373 86.1751 24.5446 86.3282 23.1384L82.3518 22.7053ZM81.5875 24.65C81.191 25.2052 80.6397 25.658 79.8674 25.9954L81.4688 29.6608C82.8424 29.0607 83.989 28.1698 84.8425 26.975L81.5875 24.65ZM79.8674 25.9954C79.0959 26.3325 78.1285 26.5312 76.9181 26.5312V30.5312C78.5619 30.5312 80.0945 30.2613 81.4688 29.6608L79.8674 25.9954ZM76.9181 26.5312C75.7803 26.5312 74.8214 26.3479 74.0108 26.0205L72.5129 29.7295C73.869 30.2771 75.3476 30.5312 76.9181 30.5312V26.5312ZM74.0324 26.0294C73.2731 25.7124 72.7045 25.2637 72.2749 24.6841L69.0613 27.0659C69.9442 28.2571 71.1048 29.1418 72.4914 29.7206L74.0324 26.0294ZM72.2749 24.6841C71.8147 24.0632 71.5635 23.425 71.482 22.7461L67.5105 23.2227C67.679 24.6271 68.209 25.9159 69.0613 27.0659L72.2749 24.6841ZM71.482 22.7461C71.3729 21.8366 71.3087 20.1226 71.3087 17.5156H67.3087C67.3087 20.117 67.3696 22.0488 67.5105 23.2227L71.482 22.7461ZM71.3087 17.5156V13.1875H67.3087V17.5156H71.3087ZM71.3087 13.1875C71.3087 10.6461 71.3672 8.94644 71.4689 8.01342L67.4924 7.58033C67.3648 8.75148 67.3087 10.6455 67.3087 13.1875H71.3087ZM71.4669 8.03056C71.5523 7.30474 71.803 6.65517 72.2331 6.0531L68.9782 3.72815C68.1582 4.87608 67.6589 6.16401 67.4943 7.56319L71.4669 8.03056ZM72.2239 6.06582C72.633 5.50251 73.1942 5.04614 73.9688 4.70772L72.3674 1.04228C70.9962 1.64136 69.8491 2.52874 68.9873 3.71543L72.2239 6.06582ZM73.9688 4.70772C74.7403 4.37066 75.7077 4.17188 76.9181 4.17188V0.171875C75.2744 0.171875 73.7418 0.441839 72.3674 1.04228L73.9688 4.70772ZM76.9181 4.17188C78.0508 4.17188 78.9962 4.35873 79.7882 4.68937L81.3292 0.998127C79.9754 0.432941 78.4938 0.171875 76.9181 0.171875V4.17188ZM79.8098 4.69823C80.573 5.00642 81.1378 5.44762 81.5613 6.01903L84.7749 3.63722C83.8859 2.4378 82.7112 1.55608 81.3077 0.989266L79.8098 4.69823ZM81.5613 6.01903C82.0215 6.63988 82.2728 7.27811 82.3542 7.95704L86.3258 7.48046C86.1572 6.07606 85.6272 4.7872 84.7749 3.63722L81.5613 6.01903ZM82.3542 7.95704C82.4634 8.86651 82.5275 10.5806 82.5275 13.1875H86.5275C86.5275 10.5861 86.4666 8.65432 86.3258 7.48046L82.3542 7.95704ZM82.5275 13.1875V17.5156H86.5275V13.1875H82.5275ZM79.9494 9.20312C79.9494 8.58387 79.9319 8.0362 79.8905 7.57799C79.8544 7.17801 79.7858 6.64506 79.5906 6.17967L75.9019 7.72658C75.8603 7.62739 75.858 7.5837 75.87 7.64742C75.8798 7.69925 75.8936 7.79237 75.9067 7.93764C75.933 8.22943 75.9494 8.6453 75.9494 9.20312H79.9494ZM79.6189 6.25088C79.4243 5.73198 79.0698 5.2313 78.5163 4.884C77.9835 4.54972 77.4192 4.45312 76.9494 4.45312V8.45312C76.8858 8.45312 76.6574 8.43986 76.3903 8.27225C76.1024 8.09162 75.9432 7.84094 75.8736 7.65537L79.6189 6.25088ZM76.9494 4.45312C75.9833 4.45312 75.0881 4.88318 74.5081 5.72095L77.7969 7.9978C77.7224 8.10534 77.5927 8.23864 77.4007 8.3365C77.212 8.43271 77.0448 8.45312 76.9494 8.45312V4.45312ZM74.4986 5.73475C74.2632 6.08104 74.1543 6.43868 74.0983 6.65816C74.0348 6.907 73.9942 7.16682 73.966 7.4154C73.9096 7.91325 73.8869 8.51869 73.8869 9.20312H77.8869C77.8869 8.58547 77.9084 8.14925 77.9406 7.86585C77.9567 7.7238 77.9713 7.6581 77.9743 7.64653C77.9847 7.60559 77.9533 7.76792 77.8064 7.984L74.4986 5.73475ZM73.8869 9.20312V21.0156H77.8869V9.20312H73.8869ZM73.8869 21.0156C73.8869 21.7699 73.9014 22.4104 73.9338 22.9231C73.9619 23.3667 74.0122 23.9194 74.1614 24.3668L77.9561 23.1019C77.9849 23.1883 77.98 23.2081 77.9649 23.0987C77.9523 23.0069 77.9383 22.8676 77.9259 22.6707C77.901 22.2771 77.8869 21.7301 77.8869 21.0156H73.8869ZM74.1792 24.4179C74.3785 24.9661 74.7504 25.4792 75.3205 25.8277C75.8621 26.1586 76.433 26.25 76.9025 26.25V22.25C76.9345 22.25 77.146 22.2555 77.4063 22.4145C77.6952 22.5911 77.864 22.8464 77.9383 23.0509L74.1792 24.4179ZM76.9025 26.25C77.4167 26.25 78.0286 26.135 78.5901 25.747C79.1655 25.3495 79.4994 24.7958 79.669 24.2585L75.8547 23.054C75.8994 22.9125 76.0275 22.6557 76.3164 22.4561C76.5915 22.2661 76.8362 22.25 76.9025 22.25V26.25ZM79.669 24.2585C79.8102 23.8114 79.8662 23.2656 79.8981 22.7847C79.9334 22.2517 79.9494 21.5951 79.9494 20.8281H75.9494C75.9494 21.5508 75.934 22.1102 75.9069 22.52C75.8763 22.9818 75.8385 23.1053 75.8547 23.054L79.669 24.2585ZM79.9494 20.8281V9.20312H75.9494V20.8281H79.9494ZM87.9563 2.70312V0.703125H85.9563V2.70312H87.9563ZM98.9094 3.0625L98.4814 5.01618L98.4853 5.01702L98.9094 3.0625ZM101.597 4.90625L99.9544 6.04737L99.9612 6.05727L99.9682 6.06709L101.597 4.90625ZM99.0188 14.7969L98.8312 12.8057L98.5373 16.7381L99.0188 14.7969ZM102.472 17.5938L100.522 18.037L100.528 18.0633L100.534 18.0894L102.472 17.5938ZM102.644 28V30H104.644V28H102.644ZM96.5344 28H94.5344V30H96.5344V28ZM96.2063 17.0781L94.5257 18.1624L94.5378 18.1812L94.5504 18.1998L96.2063 17.0781ZM94.5344 16.5938V14.5938H92.5344V16.5938H94.5344ZM94.5344 28V30H96.5344V28H94.5344ZM87.9563 28H85.9563V30H87.9563V28ZM94.5344 7.03125V5.03125H92.5344V7.03125H94.5344ZM94.5344 12.6562H92.5344V14.6562H94.5344V12.6562ZM96.0813 12.3594L97.2043 14.0143L97.2105 14.0101L97.2167 14.0058L96.0813 12.3594ZM96.0969 7.40625L94.7682 8.90107L94.7816 8.91304L94.7953 8.92476L96.0969 7.40625ZM87.9563 4.70312H92.6125V0.703125H87.9563V4.70312ZM92.6125 4.70312C95.741 4.70312 97.6301 4.82969 98.4814 5.01618L99.3373 1.10882C98.0012 0.816141 95.6924 0.703125 92.6125 0.703125V4.70312ZM98.4853 5.01702C99.0602 5.14176 99.5345 5.44299 99.9544 6.04737L103.239 3.76513C102.284 2.39035 100.967 1.46241 99.3335 1.10798L98.4853 5.01702ZM99.9682 6.06709C100.298 6.53032 100.644 7.58007 100.644 9.60938H104.644C104.644 7.32618 104.291 5.24052 103.226 3.74541L99.9682 6.06709ZM100.644 9.60938C100.644 10.5222 100.586 11.214 100.494 11.7142C100.396 12.2419 100.285 12.4109 100.289 12.4062L103.53 14.75C104.023 14.0683 104.28 13.2373 104.427 12.442C104.579 11.6194 104.644 10.6653 104.644 9.60938H100.644ZM100.289 12.4062C100.306 12.3819 100.271 12.4513 100.043 12.5477C99.8048 12.648 99.4184 12.7504 98.8312 12.8057L99.2063 16.7881C100.821 16.636 102.524 16.1407 103.53 14.75L100.289 12.4062ZM98.5373 16.7381C99.0966 16.8768 99.4951 17.0227 99.7657 17.1564C100.042 17.2931 100.113 17.3816 100.102 17.3683L103.185 14.8192C102.31 13.7605 100.895 13.2016 99.5002 12.8557L98.5373 16.7381ZM100.102 17.3683C100.442 17.7783 100.513 17.9976 100.522 18.037L104.422 17.1505C104.223 16.2732 103.742 15.4925 103.185 14.8192L100.102 17.3683ZM100.534 18.0894C100.534 18.0871 100.573 18.3144 100.603 18.9552C100.63 19.534 100.644 20.3213 100.644 21.3281H104.644C104.644 20.2933 104.629 19.4374 104.599 18.7713C104.571 18.1674 104.525 17.5483 104.409 17.0981L100.534 18.0894ZM100.644 21.3281V28H104.644V21.3281H100.644ZM102.644 26H96.5344V30H102.644V26ZM98.5344 28V19.5938H94.5344V28H98.5344ZM98.5344 19.5938C98.5344 18.8749 98.506 18.2308 98.4355 17.6905C98.3771 17.2423 98.2556 16.5374 97.8621 15.9564L94.5504 18.1998C94.4383 18.0343 94.4141 17.9216 94.4251 17.9607C94.4316 17.9837 94.4498 18.0596 94.4691 18.2079C94.5081 18.5062 94.5344 18.9584 94.5344 19.5938H98.5344ZM97.8868 15.9939C97.4161 15.2642 96.7024 14.9427 96.1886 14.7938C95.6574 14.6399 95.0828 14.5938 94.5344 14.5938V18.5938C94.7037 18.5938 94.8335 18.6014 94.9293 18.612C95.027 18.6227 95.0712 18.6346 95.0755 18.6358C95.0819 18.6377 95.0161 18.6202 94.9153 18.5564C94.8091 18.4892 94.6566 18.3654 94.5257 18.1624L97.8868 15.9939ZM92.5344 16.5938V28H96.5344V16.5938H92.5344ZM94.5344 26H87.9563V30H94.5344V26ZM89.9563 28V2.70312H85.9563V28H89.9563ZM92.5344 7.03125V12.6562H96.5344V7.03125H92.5344ZM94.5344 14.6562C95.319 14.6562 96.3755 14.5767 97.2043 14.0143L94.9583 10.7044C95.0457 10.6451 95.1105 10.6194 95.1302 10.6122C95.1506 10.6047 95.1435 10.6093 95.0988 10.6179C95.0041 10.6361 94.8245 10.6562 94.5344 10.6562V14.6562ZM97.2167 14.0058C98.0112 13.4579 98.2682 12.602 98.3709 12.1523C98.4942 11.6125 98.5344 10.9996 98.5344 10.375H94.5344C94.5344 10.6104 94.5263 10.8027 94.5133 10.9565C94.5 11.1127 94.483 11.2103 94.4713 11.2618C94.4582 11.3193 94.4599 11.2822 94.5058 11.1941C94.5512 11.1069 94.6778 10.8977 94.9458 10.7129L97.2167 14.0058ZM98.5344 10.375V8.98438H94.5344V10.375H98.5344ZM98.5344 8.98438C98.5344 8.47894 98.4903 7.95167 98.3523 7.45398C98.2161 6.96257 97.9483 6.35905 97.3985 5.88774L94.7953 8.92476C94.6654 8.81345 94.5879 8.70195 94.5461 8.6277C94.5056 8.55599 94.4952 8.51368 94.4977 8.52258C94.4999 8.53067 94.51 8.57096 94.519 8.65287C94.5279 8.73374 94.5344 8.84285 94.5344 8.98438H98.5344ZM97.4256 5.91143C96.5523 5.13512 95.3599 5.03125 94.5344 5.03125V9.03125C94.6709 9.03125 94.7803 9.03691 94.8656 9.04524C94.9516 9.05363 95.0038 9.06383 95.0286 9.06977C95.0541 9.0759 95.0379 9.0745 94.994 9.05395C94.9492 9.03302 94.8651 8.98722 94.7682 8.90107L97.4256 5.91143Z" fill="white"/>
</svg>
